<?xml version="1.0" encoding="UTF-8" standalone="no"?>
<!-- Created with Inkscape (http://www.inkscape.org/) -->

<svg
   xmlns:dc="http://purl.org/dc/elements/1.1/"
   xmlns:cc="http://creativecommons.org/ns#"
   xmlns:rdf="http://www.w3.org/1999/02/22-rdf-syntax-ns#"
   xmlns:svg="http://www.w3.org/2000/svg"
   xmlns="http://www.w3.org/2000/svg"
   xmlns:sodipodi="http://sodipodi.sourceforge.net/DTD/sodipodi-0.dtd"
   xmlns:inkscape="http://www.inkscape.org/namespaces/inkscape"
   width="211.14293mm"
   height="161.16353mm"
   viewBox="0 0 211.14293 160.02399"
   version="1.1"
   id="svg5617"
   inkscape:version="0.92.2 (5c3e80d, 2017-08-06)"
   sodipodi:docname="Apache-Netbeans-Logo_dmtavt-02.svg">
  <sodipodi:namedview
     fit-margin-bottom="0"
     fit-margin-right="0"
     fit-margin-left="0"
     fit-margin-top="0"
     viewbox-height="150"
     inkscape:snap-global="true"
     id="base"
     pagecolor="#ffffff"
     bordercolor="#666666"
     borderopacity="1.0"
     inkscape:pageopacity="0.0"
     inkscape:pageshadow="2"
     inkscape:zoom="0.7"
     inkscape:cx="356.68712"
     inkscape:cy="365.46958"
     inkscape:document-units="mm"
     inkscape:current-layer="layer1"
     showgrid="false"
     inkscape:window-width="1858"
     inkscape:window-height="1177"
     inkscape:window-x="1912"
     inkscape:window-y="-8"
     inkscape:window-maximized="1"
     inkscape:snap-intersection-paths="true"
     inkscape:snap-text-baseline="true" />
  <defs
     id="defs5611">
    <inkscape:perspective
       id="perspective5635"
       inkscape:persp3d-origin="150.70309 : 62.534985 : 1"
       inkscape:vp_z="254.09948 : 96.835295 : 1"
       inkscape:vp_y="0 : 993.26607 : 0"
       inkscape:vp_x="45.970359 : 99.224515 : 1"
       sodipodi:type="inkscape:persp3d" />
  </defs>
  <metadata
     id="metadata5614">
    <rdf:RDF>
      <cc:Work
         rdf:about="">
        <dc:format>image/svg+xml</dc:format>
        <dc:type
           rdf:resource="http://purl.org/dc/dcmitype/StillImage" />
        <dc:title></dc:title>
      </cc:Work>
    </rdf:RDF>
  </metadata>
  <g
     transform="translate(0,-19.57069)"
     id="layer1"
     inkscape:groupmode="layer"
     inkscape:label="Layer 1">
    <path
       inkscape:export-ydpi="138.5825"
       inkscape:export-xdpi="138.5825"
       inkscape:export-filename="C:\projects\netbeans-9-splash\logo-rasters-2\netbeans-logo-01-256.png"
       style="opacity:1;vector-effect:none;fill:#fbf1b4;fill-opacity:1;stroke:none;stroke-width:3.77952766;stroke-linecap:butt;stroke-linejoin:miter;stroke-miterlimit:4;stroke-dasharray:none;stroke-dashoffset:0;stroke-opacity:1"
       points="96.516285,185.77638 96.516285,219.80108 120.32879,207.81098 120.32879,181.02808 "
       d="m 120.32879,181.02808 -23.812505,4.7483 v 34.0247 l 23.812505,-11.9901 z"
       inkscape:box3dsidetype="14"
       id="path5645-2"
       sodipodi:type="inkscape:box3dside"
       transform="translate(-61.811578,-139.42407)" />
    <path
       inkscape:export-ydpi="138.5825"
       inkscape:export-xdpi="138.5825"
       inkscape:export-filename="C:\projects\netbeans-9-splash\logo-rasters-2\netbeans-logo-01-256.png"
       style="opacity:1;vector-effect:none;fill:#e3b7f2;fill-opacity:1;stroke:none;stroke-width:3.77952766;stroke-linecap:butt;stroke-linejoin:miter;stroke-miterlimit:4;stroke-dasharray:none;stroke-dashoffset:0;stroke-opacity:1"
       points="96.516285,185.77638 96.516285,219.80108 73.408001,205.69842 73.408001,179.84266 "
       d="m 73.408001,179.84266 23.108284,5.93372 v 34.0247 L 73.408001,205.69842 Z"
       inkscape:box3dsidetype="3"
       id="path5643-4"
       sodipodi:type="inkscape:box3dside"
       transform="translate(-61.811578,-139.42407)" />
    <text
       id="text5653"
       y="172.57137"
       x="26.236914"
       style="font-style:normal;font-variant:normal;font-weight:normal;font-stretch:normal;font-size:22.57777786px;line-height:1.25;font-family:'Source Sans Pro';-inkscape-font-specification:'Source Sans Pro, Normal';font-variant-ligatures:normal;font-variant-caps:normal;font-variant-numeric:normal;font-feature-settings:normal;text-align:start;letter-spacing:0px;word-spacing:0px;writing-mode:lr-tb;text-anchor:start;fill:#000000;fill-opacity:1;stroke:none;stroke-width:0.26458332"
       xml:space="preserve"><tspan
         id="tspan5655"
         style="font-style:normal;font-variant:normal;font-weight:normal;font-stretch:normal;font-size:22.57777786px;font-family:'Source Sans Pro';-inkscape-font-specification:'Source Sans Pro, Normal';font-variant-ligatures:normal;font-variant-caps:normal;font-variant-numeric:normal;font-feature-settings:normal;text-align:start;writing-mode:lr-tb;text-anchor:start;stroke-width:0.26458332"
         y="172.57137"
         x="26.236914"
         sodipodi:role="line">N</tspan></text>
    <text
       id="text5659"
       y="172.57137"
       x="38.548481"
       style="font-style:normal;font-variant:normal;font-weight:normal;font-stretch:normal;font-size:22.57777786px;line-height:1.25;font-family:'Source Sans Pro';-inkscape-font-specification:'Source Sans Pro, Normal';font-variant-ligatures:normal;font-variant-caps:normal;font-variant-numeric:normal;font-feature-settings:normal;text-align:start;letter-spacing:0px;word-spacing:0px;writing-mode:lr-tb;text-anchor:start;fill:#000000;fill-opacity:1;stroke:none;stroke-width:0.26458332"
       xml:space="preserve"><tspan
         id="tspan5665"
         style="font-style:normal;font-variant:normal;font-weight:normal;font-stretch:normal;font-size:22.57777786px;font-family:'Source Sans Pro';-inkscape-font-specification:'Source Sans Pro, Normal';font-variant-ligatures:normal;font-variant-caps:normal;font-variant-numeric:normal;font-feature-settings:normal;text-align:start;writing-mode:lr-tb;text-anchor:start;stroke-width:0.26458332"
         y="172.57137"
         x="38.548481"
         sodipodi:role="line">B</tspan></text>
    <path
       inkscape:export-ydpi="138.5825"
       inkscape:export-xdpi="138.5825"
       inkscape:export-filename="C:\projects\netbeans-9-splash\logo-rasters-2\netbeans-logo-01-256.png"
       d="m 34.704707,80.37701 c 0,0 0,-34.0247 0,-34.0247 0,0 11.550175,-2.30314 11.550175,-2.30314 1.73986,-0.34694 3.2715,-0.51736 4.61146,-0.52017 1.33482,-0.009 2.43436,0.16752 3.31374,0.52487 0.89244,0.34412 1.56504,0.89639 2.02714,1.65594 0.48586,0.71698 0.72684,1.66831 0.72684,2.85974 0,1.35768 -0.35483,2.69799 -1.07297,4.03678 -0.70028,1.32245 -1.75616,2.43932 -3.19219,3.35612 0,0 0,0.17414 0,0.17414 1.82551,-0.31074 3.25006,-0.10186 4.30755,0.60509 1.0331,0.69065 1.54076,1.95546 1.54076,3.80631 0,1.30649 -0.24624,2.55859 -0.74288,3.76639 -0.50226,1.22147 -1.2236,2.39137 -2.17458,3.51687 -0.97128,1.14953 -2.1615,2.24936 -3.587,3.30465 -1.4698,1.08811 -3.13692,2.10564 -5.0197,3.05366 0,0 -12.288345,6.18745 -12.288345,6.18745 m 5.226115,-21.2719 c 0,0 5.52094,-1.81498 5.52094,-1.81498 2.93464,-0.96476 4.94494,-2.05669 6.13432,-3.29381 1.16033,-1.20692 1.72992,-2.52003 1.72992,-3.96133 0,-1.64307 -0.60058,-2.66125 -1.82526,-3.06222 -1.22441,-0.4192 -3.13827,-0.33622 -5.82356,0.2814 0,0 -5.73636,1.31936 -5.73636,1.31936 0,0 0,10.53158 0,10.53158 m 0,15.37712 c 0,0 6.43019,-3.04099 6.43019,-3.04099 2.91619,-1.37913 5.06607,-2.85171 6.54003,-4.4393 1.42899,-1.56767 2.12726,-3.26749 2.12726,-5.13507 0,-1.7261 -0.6833,-2.7253 -2.08097,-3.00377 -1.44068,-0.31644 -3.60356,0.0327 -6.58632,1.10176 0,0 -6.43019,2.30468 -6.43019,2.30468 0,0 0,12.21269 0,12.21269"
       style="font-style:normal;font-variant:normal;font-weight:normal;font-stretch:normal;font-size:22.57777786px;line-height:1.25;font-family:'Source Sans Pro';-inkscape-font-specification:'Source Sans Pro, Normal';font-variant-ligatures:normal;font-variant-caps:normal;font-variant-numeric:normal;font-feature-settings:normal;text-align:start;letter-spacing:0px;word-spacing:0px;writing-mode:lr-tb;text-anchor:start;fill:#000000;fill-opacity:1;stroke:none;stroke-width:0.26458332"
       id="path5711"
       inkscape:connector-curvature="0" />
    <path
       inkscape:export-ydpi="138.5825"
       inkscape:export-xdpi="138.5825"
       inkscape:export-filename="C:\projects\netbeans-9-splash\logo-rasters-2\netbeans-logo-01-256.png"
       style="opacity:1;vector-effect:none;fill:#f3525c;fill-opacity:1;stroke:none;stroke-width:3.77952766;stroke-linecap:butt;stroke-linejoin:miter;stroke-miterlimit:4;stroke-dasharray:none;stroke-dashoffset:0;stroke-opacity:1"
       points="73.408001,179.84266 96.516285,185.77638 120.32879,181.02808 96.416663,177.05146 "
       d="m 96.416663,177.05146 -23.008662,2.7912 23.108284,5.93372 23.812505,-4.7483 z"
       inkscape:box3dsidetype="5"
       id="path5641-0"
       sodipodi:type="inkscape:box3dside"
       transform="translate(-61.811578,-139.42407)" />
    <path
       inkscape:export-ydpi="138.5825"
       inkscape:export-xdpi="138.5825"
       inkscape:export-filename="C:\projects\netbeans-9-splash\logo-rasters-2\netbeans-logo-01-256.png"
       d="m 11.596427,66.27435 c 0,0 0,-25.855759 0,-25.855759 0,0 3.38338,0.86878 3.38338,0.86878 0,0 11.18059,22.343119 11.18059,22.343119 0,0 4.01455,8.64407 4.01455,8.64407 0,0 0.23713,0.13092 0.23713,0.13092 -0.11871,-1.7152 -0.25683,-3.48557 -0.41418,-5.30971 -0.11765,-1.83203 -0.17636,-3.5997 -0.17636,-5.30652 0,0 0,-16.69084 0,-16.69084 0,0 4.88317,1.2539 4.88317,1.2539 0,0 0,34.0247 0,34.0247 0,0 -5.29207,-3.22968 -5.29207,-3.22968 0,0 -12.01241,-24.90078 -12.01241,-24.90078 0,0 -2.99237,-6.68568 -2.99237,-6.68568 0,0 -0.16185,-0.051 -0.16185,-0.051 0.10782,1.39731 0.20242,2.82114 0.28369,4.27084 0.10863,1.43601 0.16306,2.86766 0.16306,4.29187 0,0 0,14.0914 0,14.0914 0,0 -3.09633,-1.88965 -3.09633,-1.88965"
       style="font-style:normal;font-variant:normal;font-weight:normal;font-stretch:normal;font-size:22.57777786px;line-height:1.25;font-family:'Source Sans Pro';-inkscape-font-specification:'Source Sans Pro, Normal';font-variant-ligatures:normal;font-variant-caps:normal;font-variant-numeric:normal;font-feature-settings:normal;text-align:start;letter-spacing:0px;word-spacing:0px;writing-mode:lr-tb;text-anchor:start;fill:#000000;fill-opacity:1;stroke:none;stroke-width:0.26458332"
       id="path5707-8"
       inkscape:connector-curvature="0" />
    <path
       inkscape:export-ydpi="132.17001"
       inkscape:export-xdpi="132.17001"
       inkscape:export-filename="C:\projects\netbeans-9-splash\logo-rasters-2\netbeans-logo-03-256.png"
       style="opacity:1;vector-effect:none;fill:#a9f2fc;fill-opacity:1;stroke:none;stroke-width:3.77952766;stroke-linecap:butt;stroke-linejoin:miter;stroke-miterlimit:4;stroke-dasharray:none;stroke-dashoffset:0;stroke-opacity:1"
       points="120.32879,207.81098 120.32879,181.02808 96.516285,185.77638 96.516285,219.80108 "
       d="m 96.516285,219.80108 23.812505,-11.9901 v -26.7829 l -23.812505,4.7483 z"
       inkscape:box3dsidetype="14"
       id="path5645-2-1"
       sodipodi:type="inkscape:box3dside"
       transform="translate(74.990161,-135.49965)" />
    <path
       inkscape:export-ydpi="132.17001"
       inkscape:export-xdpi="132.17001"
       inkscape:export-filename="C:\projects\netbeans-9-splash\logo-rasters-2\netbeans-logo-03-256.png"
       style="opacity:1;vector-effect:none;fill:#c8f3c4;fill-opacity:1;stroke:none;stroke-width:3.77952766;stroke-linecap:butt;stroke-linejoin:miter;stroke-miterlimit:4;stroke-dasharray:none;stroke-dashoffset:0;stroke-opacity:1"
       points="73.408001,205.69842 73.408001,179.84266 96.516285,185.77638 96.516285,219.80108 "
       d="M 96.516285,219.80108 73.408001,205.69842 v -25.85576 l 23.108284,5.93372 z"
       inkscape:box3dsidetype="3"
       id="path5643-4-6"
       sodipodi:type="inkscape:box3dside"
       transform="translate(74.189828,-135.56908)" />
    <path
       inkscape:export-ydpi="132.17001"
       inkscape:export-xdpi="132.17001"
       inkscape:export-filename="C:\projects\netbeans-9-splash\logo-rasters-2\netbeans-logo-03-256.png"
       d="m 172.30972,84.900161 c 0,0 0,-34.0247 0,-34.0247 0,0 11.55018,-2.30314 11.55018,-2.30314 1.73986,-0.34694 3.2715,-0.51736 4.61146,-0.52017 1.33482,-0.009 2.43436,0.16752 3.31374,0.52487 0.89244,0.34412 1.56504,0.89639 2.02714,1.65594 0.48586,0.71698 0.72684,1.66831 0.72684,2.85974 0,1.35768 -0.35483,2.69799 -1.07297,4.03678 -0.70028,1.32245 -1.75616,2.43932 -3.19219,3.35612 0,0 0,0.17414 0,0.17414 1.82551,-0.31074 3.25006,-0.10186 4.30755,0.60509 1.0331,0.69065 1.54076,1.95546 1.54076,3.80631 0,1.30649 -0.24624,2.55859 -0.74288,3.76639 -0.50226,1.22147 -1.2236,2.39137 -2.17458,3.51687 -0.97128,1.14953 -2.1615,2.24936 -3.587,3.30465 -1.4698,1.08811 -3.13692,2.10564 -5.0197,3.05366 0,0 -12.28835,6.18745 -12.28835,6.18745 m 5.22612,-21.2719 c 0,0 5.52094,-1.81498 5.52094,-1.81498 2.93464,-0.96476 4.94494,-2.05669 6.13432,-3.29381 1.16033,-1.20692 1.72992,-2.52003 1.72992,-3.96133 0,-1.64307 -0.60058,-2.66125 -1.82526,-3.06222 -1.22441,-0.4192 -3.13827,-0.33622 -5.82356,0.2814 0,0 -5.73636,1.31936 -5.73636,1.31936 0,0 0,10.53158 0,10.53158 m 0,15.37712 c 0,0 6.43019,-3.04099 6.43019,-3.04099 2.91619,-1.37913 5.06607,-2.85171 6.54003,-4.4393 1.42899,-1.56767 2.12726,-3.26749 2.12726,-5.13507 0,-1.7261 -0.6833,-2.7253 -2.08097,-3.00377 -1.44068,-0.31644 -3.60356,0.0327 -6.58632,1.10176 0,0 -6.43019,2.30468 -6.43019,2.30468 0,0 0,12.21269 0,12.21269"
       style="font-style:normal;font-variant:normal;font-weight:normal;font-stretch:normal;font-size:22.57777786px;line-height:1.25;font-family:'Source Sans Pro';-inkscape-font-specification:'Source Sans Pro, Normal';font-variant-ligatures:normal;font-variant-caps:normal;font-variant-numeric:normal;font-feature-settings:normal;text-align:start;letter-spacing:0px;word-spacing:0px;writing-mode:lr-tb;text-anchor:start;fill:#000000;fill-opacity:1;stroke:none;stroke-width:0.26458332"
       id="path5711-1"
       inkscape:connector-curvature="0" />
    <path
       inkscape:export-ydpi="132.17001"
       inkscape:export-xdpi="132.17001"
       inkscape:export-filename="C:\projects\netbeans-9-splash\logo-rasters-2\netbeans-logo-03-256.png"
       style="opacity:1;vector-effect:none;fill:#8100e3;fill-opacity:1;stroke:none;stroke-width:3.77952766;stroke-linecap:butt;stroke-linejoin:miter;stroke-miterlimit:4;stroke-dasharray:none;stroke-dashoffset:0;stroke-opacity:1"
       points="73.408001,179.84266 96.516285,185.77638 120.32879,181.02808 96.416663,177.05146 "
       d="m 96.416663,177.05146 -23.008662,2.7912 23.108284,5.93372 23.812505,-4.7483 z"
       inkscape:box3dsidetype="5"
       id="path5641-0-1"
       sodipodi:type="inkscape:box3dside"
       transform="translate(74.582625,-136.11507)" />
    <path
       inkscape:export-ydpi="132.17001"
       inkscape:export-xdpi="132.17001"
       inkscape:export-filename="C:\projects\netbeans-9-splash\logo-rasters-2\netbeans-logo-03-256.png"
       d="m 146.92498,70.681554 c 0,0 0,-25.855761 0,-25.855761 0,0 3.38338,0.868781 3.38338,0.868781 0,0 11.18059,22.34312 11.18059,22.34312 0,0 4.01455,8.64407 4.01455,8.64407 0,0 0.23713,0.13092 0.23713,0.13092 -0.11871,-1.7152 -0.25683,-3.48557 -0.41418,-5.30971 -0.11765,-1.83203 -0.17636,-3.5997 -0.17636,-5.30652 0,0 0,-16.69084 0,-16.69084 0,0 4.88317,1.2539 4.88317,1.2539 0,0 0,34.0247 0,34.0247 0,0 -5.29207,-3.22968 -5.29207,-3.22968 0,0 -12.01241,-24.90078 -12.01241,-24.90078 0,0 -2.99237,-6.68568 -2.99237,-6.68568 0,0 -0.16185,-0.051 -0.16185,-0.051 0.10782,1.39731 0.20242,2.82114 0.28369,4.27084 0.10863,1.43601 0.16306,2.86766 0.16306,4.29187 0,0 0,14.0914 0,14.0914 0,0 -3.09633,-1.88965 -3.09633,-1.88965"
       style="font-style:normal;font-variant:normal;font-weight:normal;font-stretch:normal;font-size:22.57777786px;line-height:1.25;font-family:'Source Sans Pro';-inkscape-font-specification:'Source Sans Pro, Normal';font-variant-ligatures:normal;font-variant-caps:normal;font-variant-numeric:normal;font-feature-settings:normal;text-align:start;letter-spacing:0px;word-spacing:0px;writing-mode:lr-tb;text-anchor:start;fill:#000000;fill-opacity:1;stroke:none;stroke-width:0.26458332"
       id="path5707-8-3"
       inkscape:connector-curvature="0" />
    <path
       inkscape:export-ydpi="116.37547"
       inkscape:export-xdpi="116.37547"
       inkscape:export-filename="C:\projects\netbeans-9-splash\logo-rasters-2\netbeans-logo-02-256.png"
       style="opacity:1;vector-effect:none;fill:#dabd85;fill-opacity:1;stroke:none;stroke-width:3.77952766;stroke-linecap:butt;stroke-linejoin:miter;stroke-miterlimit:4;stroke-dasharray:none;stroke-dashoffset:0;stroke-opacity:1"
       points="120.32879,181.02808 96.516285,185.77638 96.516285,219.80108 120.32879,207.81098 "
       d="m 120.32879,207.81098 v -26.7829 l -23.812505,4.7483 v 34.0247 z"
       inkscape:box3dsidetype="14"
       id="path5645-2-1-8"
       sodipodi:type="inkscape:box3dside"
       transform="translate(9.3814555,-138.60076)" />
    <path
       inkscape:export-ydpi="116.37547"
       inkscape:export-xdpi="116.37547"
       inkscape:export-filename="C:\projects\netbeans-9-splash\logo-rasters-2\netbeans-logo-02-256.png"
       style="opacity:1;vector-effect:none;fill:#b2e4df;fill-opacity:1;stroke:none;stroke-width:3.77952766;stroke-linecap:butt;stroke-linejoin:miter;stroke-miterlimit:4;stroke-dasharray:none;stroke-dashoffset:0;stroke-opacity:1"
       points="96.516285,219.80108 73.408001,205.69842 73.408001,179.84266 96.516285,185.77638 "
       d="m 96.516285,185.77638 v 34.0247 L 73.408001,205.69842 v -25.85576 z"
       inkscape:box3dsidetype="3"
       id="path5643-4-6-5"
       sodipodi:type="inkscape:box3dside"
       transform="translate(9.3814555,-138.60076)" />
    <path
       inkscape:export-ydpi="116.37547"
       inkscape:export-xdpi="116.37547"
       inkscape:export-filename="C:\projects\netbeans-9-splash\logo-rasters-2\netbeans-logo-02-256.png"
       d="m 110.44133,82.403019 c 0,0 0,-34.024704 0,-34.024704 0,0 11.55018,-2.30314 11.55018,-2.30314 1.73986,-0.34694 3.2715,-0.51736 4.61146,-0.52017 1.33482,-0.009 2.43435,0.16752 3.31374,0.52487 0.89244,0.34412 1.56504,0.89639 2.02714,1.65594 0.48586,0.71698 0.72684,1.66831 0.72684,2.859741 0,1.35768 -0.35483,2.69799 -1.07297,4.03678 -0.70028,1.32245 -1.75616,2.43932 -3.19219,3.35612 0,0 0,0.17414 0,0.17414 1.8255,-0.31074 3.25006,-0.10186 4.30755,0.60509 1.0331,0.69065 1.54076,1.95546 1.54076,3.80631 0,1.30649 -0.24624,2.55859 -0.74288,3.766392 -0.50226,1.221467 -1.2236,2.391368 -2.17458,3.516868 -0.97128,1.14953 -2.1615,2.249361 -3.587,3.304649 -1.4698,1.088104 -3.13692,2.105634 -5.0197,3.053654 0,0 -12.28835,6.18746 -12.28835,6.18746 m 5.22611,-21.271903 c 0,0 5.52095,-1.81498 5.52095,-1.81498 2.93464,-0.96476 4.94494,-2.05669 6.13432,-3.29381 1.16033,-1.20692 1.72992,-2.52003 1.72992,-3.96133 0,-1.64307 -0.60058,-2.661251 -1.82526,-3.062221 -1.22441,-0.4192 -3.13827,-0.33622 -5.82357,0.2814 0,0 -5.73636,1.319361 -5.73636,1.319361 0,0 0,10.53158 0,10.53158 m 0,15.377113 c 0,0 6.43019,-3.040985 6.43019,-3.040985 2.91619,-1.379127 5.06608,-2.851708 6.54004,-4.439298 1.42899,-1.567669 2.12726,-3.26749 2.12726,-5.13507 0,-1.7261 -0.68331,-2.7253 -2.08097,-3.00377 -1.44068,-0.31644 -3.60356,0.0327 -6.58633,1.10176 0,0 -6.43019,2.30468 -6.43019,2.30468 0,0 0,12.212683 0,12.212683"
       style="font-style:normal;font-variant:normal;font-weight:normal;font-stretch:normal;font-size:22.57777786px;line-height:1.25;font-family:'Source Sans Pro';-inkscape-font-specification:'Source Sans Pro, Normal';font-variant-ligatures:normal;font-variant-caps:normal;font-variant-numeric:normal;font-feature-settings:normal;text-align:start;letter-spacing:0px;word-spacing:0px;writing-mode:lr-tb;text-anchor:start;fill:#000000;fill-opacity:1;stroke:none;stroke-width:0.26458332"
       id="path5711-1-2"
       inkscape:connector-curvature="0" />
    <path
       inkscape:export-ydpi="116.37547"
       inkscape:export-xdpi="116.37547"
       inkscape:export-filename="C:\projects\netbeans-9-splash\logo-rasters-2\netbeans-logo-02-256.png"
       style="opacity:1;vector-effect:none;fill:#e28e4c;fill-opacity:1;stroke:none;stroke-width:3.77952766;stroke-linecap:butt;stroke-linejoin:miter;stroke-miterlimit:4;stroke-dasharray:none;stroke-dashoffset:0;stroke-opacity:1"
       points="96.516285,185.77638 120.32879,181.02808 96.416663,177.05146 73.408001,179.84266 "
       d="m 73.408001,179.84266 23.108284,5.93372 23.812505,-4.7483 -23.912127,-3.97662 z"
       inkscape:box3dsidetype="5"
       id="path5641-0-1-7"
       sodipodi:type="inkscape:box3dside"
       transform="translate(9.3814555,-138.60076)" />
    <path
       inkscape:export-ydpi="116.37547"
       inkscape:export-xdpi="116.37547"
       inkscape:export-filename="C:\projects\netbeans-9-splash\logo-rasters-2\netbeans-logo-02-256.png"
       d="m 78.379514,68.433992 c 0,0 0,-25.855762 0,-25.855762 0,0 3.38338,0.86878 3.38338,0.86878 0,0 11.1806,22.34312 11.1806,22.34312 0,0 4.01455,8.644063 4.01455,8.644063 0,0 0.23713,0.13092 0.23713,0.13092 -0.11871,-1.715191 -0.25683,-3.485563 -0.41418,-5.309701 -0.11765,-1.832031 -0.17636,-3.599702 -0.17636,-5.306522 0,0 0,-16.690841 0,-16.690841 0,0 4.883166,1.2539 4.883166,1.2539 0,0 0,34.024704 0,34.024704 0,0 -5.292066,-3.22969 -5.292066,-3.22969 0,0 -12.01242,-24.900773 -12.01242,-24.900773 0,0 -2.99237,-6.685681 -2.99237,-6.685681 0,0 -0.16185,-0.051 -0.16185,-0.051 0.10782,1.39731 0.20242,2.821141 0.28369,4.270841 0.10863,1.43601 0.16306,2.86766 0.16306,4.29187 0,0 0,14.091399 0,14.091399 0,0 -3.09633,-1.889648 -3.09633,-1.889648"
       style="font-style:normal;font-variant:normal;font-weight:normal;font-stretch:normal;font-size:22.57777786px;line-height:1.25;font-family:'Source Sans Pro';-inkscape-font-specification:'Source Sans Pro, Normal';font-variant-ligatures:normal;font-variant-caps:normal;font-variant-numeric:normal;font-feature-settings:normal;text-align:start;letter-spacing:0px;word-spacing:0px;writing-mode:lr-tb;text-anchor:start;fill:#000000;fill-opacity:1;stroke:none;stroke-width:0.26458332"
       id="path5707-8-3-5"
       inkscape:connector-curvature="0" />
    <path
       inkscape:export-ydpi="138.5825"
       inkscape:export-xdpi="138.5825"
       inkscape:export-filename="C:\projects\netbeans-9-splash\logo-rasters-2\netbeans-logo-04-256.png"
       style="opacity:1;vector-effect:none;fill:#6b004d;fill-opacity:1;stroke:none;stroke-width:3.77952766;stroke-linecap:butt;stroke-linejoin:miter;stroke-miterlimit:4;stroke-dasharray:none;stroke-dashoffset:0;stroke-opacity:1"
       points="96.516285,219.80108 120.32879,207.81098 120.32879,181.02808 96.516285,185.77638 "
       d="m 96.516285,185.77638 v 34.0247 l 23.812505,-11.9901 v -26.7829 z"
       inkscape:box3dsidetype="14"
       id="path5645-2-1-8-9"
       sodipodi:type="inkscape:box3dside"
       transform="translate(-34.126885,-84.104986)" />
    <path
       inkscape:export-ydpi="138.5825"
       inkscape:export-xdpi="138.5825"
       inkscape:export-filename="C:\projects\netbeans-9-splash\logo-rasters-2\netbeans-logo-04-256.png"
       style="opacity:1;vector-effect:none;fill:#30004c;fill-opacity:1;stroke:none;stroke-width:3.77952766;stroke-linecap:butt;stroke-linejoin:miter;stroke-miterlimit:4;stroke-dasharray:none;stroke-dashoffset:0;stroke-opacity:1"
       points="73.408001,205.69842 73.408001,179.84266 96.516285,185.77638 96.516285,219.80108 "
       d="M 96.516285,219.80108 73.408001,205.69842 v -25.85576 l 23.108284,5.93372 z"
       inkscape:box3dsidetype="3"
       id="path5643-4-6-5-3"
       sodipodi:type="inkscape:box3dside"
       transform="translate(-34.126885,-84.104986)" />
    <path
       inkscape:export-ydpi="138.5825"
       inkscape:export-xdpi="138.5825"
       inkscape:export-filename="C:\projects\netbeans-9-splash\logo-rasters-2\netbeans-logo-04-256.png"
       d="m 64.707494,132.109 c 0,0 0,-27.40024 0,-27.40024 0,0 9.301413,-1.85473 9.301413,-1.85473 1.401116,-0.27939 2.634553,-0.41664 3.713628,-0.41889 1.074936,-0.007 1.960402,0.13489 2.668571,0.42267 0.718692,0.27712 1.260332,0.72187 1.632471,1.33353 0.391259,0.5774 0.58532,1.34352 0.58532,2.30297 0,1.09334 -0.285745,2.1727 -0.864067,3.25084 -0.563938,1.06497 -1.414244,1.9644 -2.570685,2.70269 0,0 0,0.14024 0,0.14024 1.470092,-0.25024 2.617287,-0.082 3.468888,0.48727 0.831962,0.55619 1.240783,1.57475 1.240783,3.06524 0,1.05214 -0.198291,2.06046 -0.598245,3.03311 -0.404465,0.98366 -0.985372,1.92577 -1.7512,2.83215 -0.782174,0.92573 -1.740664,1.81141 -2.888626,2.66125 -1.183637,0.87624 -2.526168,1.69568 -4.042388,2.45912 0,0 -9.895863,4.98278 -9.895863,4.98278 m 4.208618,-17.13036 c 0,0 4.446039,-1.46161 4.446039,-1.46161 2.363278,-0.77692 3.98219,-1.65626 4.939994,-2.65252 0.934419,-0.97194 1.393113,-2.0294 1.393113,-3.19007 0,-1.32318 -0.483651,-2.14312 -1.469891,-2.46603 -0.986022,-0.33758 -2.527262,-0.27075 -4.689746,0.22662 0,0 -4.619509,1.06248 -4.619509,1.06248 0,0 0,8.48113 0,8.48113 m 0,12.38326 c 0,0 5.178261,-2.4489 5.178261,-2.4489 2.348414,-1.11063 4.079737,-2.29651 5.266715,-3.575 1.150772,-1.26246 1.7131,-2.63133 1.7131,-4.13529 0,-1.39005 -0.55028,-2.1947 -1.675822,-2.41895 -1.160187,-0.25485 -2.901964,0.0263 -5.303993,0.88724 0,0 -5.178261,1.85597 -5.178261,1.85597 0,0 0,9.83493 0,9.83493"
       style="font-style:normal;font-variant:normal;font-weight:normal;font-stretch:normal;font-size:22.57777786px;line-height:1.25;font-family:'Source Sans Pro';-inkscape-font-specification:'Source Sans Pro, Normal';font-variant-ligatures:normal;font-variant-caps:normal;font-variant-numeric:normal;font-feature-settings:normal;text-align:start;letter-spacing:0px;word-spacing:0px;writing-mode:lr-tb;text-anchor:start;fill:#ffffff;fill-opacity:1;stroke:none;stroke-width:0.21307014"
       id="path5711-1-2-2"
       inkscape:connector-curvature="0" />
    <path
       inkscape:export-ydpi="138.5825"
       inkscape:export-xdpi="138.5825"
       inkscape:export-filename="C:\projects\netbeans-9-splash\logo-rasters-2\netbeans-logo-04-256.png"
       style="opacity:1;vector-effect:none;fill:#006da0;fill-opacity:1;stroke:none;stroke-width:3.77952766;stroke-linecap:butt;stroke-linejoin:miter;stroke-miterlimit:4;stroke-dasharray:none;stroke-dashoffset:0;stroke-opacity:1"
       points="73.408001,179.84266 96.516285,185.77638 120.32879,181.02808 96.416663,177.05146 "
       d="m 96.416663,177.05146 -23.008662,2.7912 23.108284,5.93372 23.812505,-4.7483 z"
       inkscape:box3dsidetype="5"
       id="path5641-0-1-7-4"
       sodipodi:type="inkscape:box3dside"
       transform="translate(-34.126885,-84.104986)" />
    <path
       inkscape:export-ydpi="138.5825"
       inkscape:export-xdpi="138.5825"
       inkscape:export-filename="C:\projects\netbeans-9-splash\logo-rasters-2\netbeans-logo-04-256.png"
       d="m 41.51253,120.45852 c 0,0 0,-20.862324 0,-20.862324 0,0 2.729959,0.700994 2.729959,0.700994 0,0 9.02133,18.02807 9.02133,18.02807 0,0 3.239233,6.97466 3.239233,6.97466 0,0 0.191335,0.10563 0.191335,0.10563 -0.09578,-1.38394 -0.20723,-2.8124 -0.334192,-4.28425 -0.09493,-1.47821 -0.142299,-2.9045 -0.142299,-4.28169 0,0 0,-13.46739 0,-13.46739 0,0 3.940091,1.01173 3.940091,1.01173 0,0 0,27.45363 0,27.45363 0,0 -4.270022,-2.60595 -4.270022,-2.60595 0,0 -9.692504,-20.09177 -9.692504,-20.09177 0,0 -2.414463,-5.3945 -2.414463,-5.3945 0,0 -0.130593,-0.0412 -0.130593,-0.0412 0.087,1.12745 0.163328,2.2763 0.228902,3.44602 0.08765,1.15869 0.131569,2.31384 0.131569,3.463 0,0 0,11.36998 0,11.36998 0,0 -2.498346,-1.52471 -2.498346,-1.52471"
       style="font-style:normal;font-variant:normal;font-weight:normal;font-stretch:normal;font-size:22.57777786px;line-height:1.25;font-family:'Source Sans Pro';-inkscape-font-specification:'Source Sans Pro, Normal';font-variant-ligatures:normal;font-variant-caps:normal;font-variant-numeric:normal;font-feature-settings:normal;text-align:start;letter-spacing:0px;word-spacing:0px;writing-mode:lr-tb;text-anchor:start;fill:#ffffff;fill-opacity:1;stroke:none;stroke-width:0.21348521"
       id="path5707-8-3-5-6"
       inkscape:connector-curvature="0" />
    <text
       id="text5653-3"
       y="172.57137"
       x="129.49283"
       style="font-style:normal;font-variant:normal;font-weight:normal;font-stretch:normal;font-size:22.57777786px;line-height:1.25;font-family:'Maven Pro';-inkscape-font-specification:'Maven Pro, Normal';font-variant-ligatures:normal;font-variant-caps:normal;font-variant-numeric:normal;font-feature-settings:normal;text-align:start;letter-spacing:0px;word-spacing:0px;writing-mode:lr-tb;text-anchor:start;fill:#000000;fill-opacity:1;stroke:none;stroke-width:0.26458332"
       xml:space="preserve"><tspan
         id="tspan5655-3"
         style="font-style:normal;font-variant:normal;font-weight:normal;font-stretch:normal;font-size:22.57777786px;font-family:'Maven Pro';-inkscape-font-specification:'Maven Pro, Normal';font-variant-ligatures:normal;font-variant-caps:normal;font-variant-numeric:normal;font-feature-settings:normal;text-align:start;writing-mode:lr-tb;text-anchor:start;stroke-width:0.26458332"
         y="172.57137"
         x="129.49283"
         sodipodi:role="line">N</tspan></text>
    <text
       id="text5659-5"
       y="172.57137"
       x="143.72391"
       style="font-style:normal;font-variant:normal;font-weight:normal;font-stretch:normal;font-size:22.57777786px;line-height:1.25;font-family:'Maven Pro';-inkscape-font-specification:'Maven Pro, Normal';font-variant-ligatures:normal;font-variant-caps:normal;font-variant-numeric:normal;font-feature-settings:normal;text-align:start;letter-spacing:0px;word-spacing:0px;writing-mode:lr-tb;text-anchor:start;fill:#000000;fill-opacity:1;stroke:none;stroke-width:0.26458332"
       xml:space="preserve"><tspan
         id="tspan5665-5"
         style="font-style:normal;font-variant:normal;font-weight:normal;font-stretch:normal;font-size:22.57777786px;font-family:'Maven Pro';-inkscape-font-specification:'Maven Pro, Normal';font-variant-ligatures:normal;font-variant-caps:normal;font-variant-numeric:normal;font-feature-settings:normal;text-align:start;writing-mode:lr-tb;text-anchor:start;stroke-width:0.26458332"
         y="172.57137"
         x="143.72391"
         sodipodi:role="line">B</tspan></text>
    <text
       id="text6889"
       y="151.33766"
       x="35.633614"
       style="font-style:normal;font-variant:normal;font-weight:normal;font-stretch:normal;font-size:4.93888903px;line-height:1.25;font-family:'Cambria Math';-inkscape-font-specification:'Cambria Math';letter-spacing:0px;word-spacing:0px;fill:#000000;fill-opacity:1;stroke:none;stroke-width:0.26458335"
       xml:space="preserve"><tspan
         id="tspan6891"
         style="stroke-width:0.26458335"
         y="151.33766"
         x="35.633614"
         sodipodi:role="line">Source Sans Pro</tspan></text>
    <text
       id="text6889-2"
       y="151.33766"
       x="148.44945"
       style="font-style:normal;font-variant:normal;font-weight:normal;font-stretch:normal;font-size:4.93888903px;line-height:1.25;font-family:'Cambria Math';-inkscape-font-specification:'Cambria Math';letter-spacing:0px;word-spacing:0px;fill:#000000;fill-opacity:1;stroke:none;stroke-width:0.26458335"
       xml:space="preserve"><tspan
         id="tspan6913"
         style="stroke-width:0.26458335"
         y="151.33766"
         x="148.44945"
         sodipodi:role="line">Maven Pro</tspan></text>
    <flowRoot
       transform="matrix(0.26458334,0,0,0.26458334,0,19.000918)"
       style="font-style:normal;font-variant:normal;font-weight:normal;font-stretch:normal;font-size:18.66666603px;line-height:1.25;font-family:'Cambria Math';-inkscape-font-specification:'Cambria Math';letter-spacing:0px;word-spacing:0px;fill:#000000;fill-opacity:1;stroke:none"
       id="flowRoot6929"
       xml:space="preserve"><flowRegion
         id="flowRegion6931"><rect
           y="531.97913"
           x="625"
           height="85"
           width="150.71428"
           id="rect6933" /></flowRegion><flowPara
         id="flowPara6935" /></flowRoot>    <text
       id="text5659-5-8"
       y="172.57137"
       x="162.19455"
       style="font-style:normal;font-variant:normal;font-weight:normal;font-stretch:normal;font-size:22.57777977px;line-height:1.25;font-family:'Maven Pro';-inkscape-font-specification:'Maven Pro, Normal';font-variant-ligatures:normal;font-variant-caps:normal;font-variant-numeric:normal;font-feature-settings:normal;text-align:start;letter-spacing:0px;word-spacing:0px;writing-mode:lr-tb;text-anchor:start;fill:#000000;fill-opacity:1;stroke:none;stroke-width:0.26458332"
       xml:space="preserve"><tspan
         id="tspan5665-5-0"
         style="font-style:normal;font-variant:normal;font-weight:normal;font-stretch:normal;font-size:22.57777977px;font-family:'Maven Pro';-inkscape-font-specification:'Maven Pro, Normal';font-variant-ligatures:normal;font-variant-caps:normal;font-variant-numeric:normal;font-feature-settings:normal;text-align:start;writing-mode:lr-tb;text-anchor:start;stroke-width:0.26458332"
         y="172.57137"
         x="162.19455"
         sodipodi:role="line">n</tspan></text>
    <text
       id="text5659-5-1"
       y="172.57137"
       x="173.70186"
       style="font-style:normal;font-variant:normal;font-weight:normal;font-stretch:normal;font-size:22.57777977px;line-height:1.25;font-family:'Maven Pro';-inkscape-font-specification:'Maven Pro, Normal';font-variant-ligatures:normal;font-variant-caps:normal;font-variant-numeric:normal;font-feature-settings:normal;text-align:start;letter-spacing:0px;word-spacing:0px;writing-mode:lr-tb;text-anchor:start;fill:#000000;fill-opacity:1;stroke:none;stroke-width:0.26458332"
       xml:space="preserve"><tspan
         id="tspan5665-5-2"
         style="font-style:normal;font-variant:normal;font-weight:normal;font-stretch:normal;font-size:22.57777977px;font-family:'Maven Pro';-inkscape-font-specification:'Maven Pro, Normal';font-variant-ligatures:normal;font-variant-caps:normal;font-variant-numeric:normal;font-feature-settings:normal;text-align:start;writing-mode:lr-tb;text-anchor:start;stroke-width:0.26458332"
         y="172.57137"
         x="173.70186"
         sodipodi:role="line">b</tspan></text>
    <text
       id="text5659-0"
       y="172.57137"
       x="68.109451"
       style="font-style:normal;font-variant:normal;font-weight:normal;font-stretch:normal;font-size:22.57777977px;line-height:1.25;font-family:'Source Sans Pro';-inkscape-font-specification:'Source Sans Pro, Normal';font-variant-ligatures:normal;font-variant-caps:normal;font-variant-numeric:normal;font-feature-settings:normal;text-align:start;letter-spacing:0px;word-spacing:0px;writing-mode:lr-tb;text-anchor:start;fill:#000000;fill-opacity:1;stroke:none;stroke-width:0.26458332"
       xml:space="preserve"><tspan
         id="tspan5665-0"
         style="font-style:normal;font-variant:normal;font-weight:normal;font-stretch:normal;font-size:22.57777977px;font-family:'Source Sans Pro';-inkscape-font-specification:'Source Sans Pro, Normal';font-variant-ligatures:normal;font-variant-caps:normal;font-variant-numeric:normal;font-feature-settings:normal;text-align:start;writing-mode:lr-tb;text-anchor:start;stroke-width:0.26458332"
         y="172.57137"
         x="68.109451"
         sodipodi:role="line">b</tspan></text>
    <text
       id="text5659-02"
       y="172.57137"
       x="57.526112"
       style="font-style:normal;font-variant:normal;font-weight:normal;font-stretch:normal;font-size:22.57777977px;line-height:1.25;font-family:'Source Sans Pro';-inkscape-font-specification:'Source Sans Pro, Normal';font-variant-ligatures:normal;font-variant-caps:normal;font-variant-numeric:normal;font-feature-settings:normal;text-align:start;letter-spacing:0px;word-spacing:0px;writing-mode:lr-tb;text-anchor:start;fill:#000000;fill-opacity:1;stroke:none;stroke-width:0.26458332"
       xml:space="preserve"><tspan
         id="tspan5665-1"
         style="font-style:normal;font-variant:normal;font-weight:normal;font-stretch:normal;font-size:22.57777977px;font-family:'Source Sans Pro';-inkscape-font-specification:'Source Sans Pro, Normal';font-variant-ligatures:normal;font-variant-caps:normal;font-variant-numeric:normal;font-feature-settings:normal;text-align:start;writing-mode:lr-tb;text-anchor:start;stroke-width:0.26458332"
         y="172.57137"
         x="57.526112"
         sodipodi:role="line">n</tspan></text>
    <flowRoot
       transform="matrix(0.26458334,0,0,0.26458334,0,19.000918)"
       style="font-style:normal;font-variant:normal;font-weight:normal;font-stretch:normal;font-size:18.66666603px;line-height:1.25;font-family:'Cambria Math';-inkscape-font-specification:'Cambria Math';letter-spacing:0px;word-spacing:0px;fill:#000000;fill-opacity:1;stroke:none"
       id="flowRoot6997"
       xml:space="preserve"><flowRegion
         id="flowRegion6999"><rect
           y="514.8363"
           x="177.85715"
           height="97.85714"
           width="123.57143"
           id="rect7001" /></flowRegion><flowPara
         id="flowPara7003" /></flowRoot>    <flowRoot
       transform="matrix(0.26458334,0,0,0.26458334,0,19.000918)"
       style="font-style:normal;font-variant:normal;font-weight:normal;font-stretch:normal;font-size:18.66666603px;line-height:1.25;font-family:'Cambria Math';-inkscape-font-specification:'Cambria Math';letter-spacing:0px;word-spacing:0px;fill:#000000;fill-opacity:1;stroke:none"
       id="flowRoot7005"
       xml:space="preserve"><flowRegion
         id="flowRegion7007"><rect
           y="509.8363"
           x="641.42859"
           height="102.14286"
           width="106.42857"
           id="rect7009" /></flowRegion><flowPara
         id="flowPara7011" /></flowRoot>    <path
       d="m 115.1311,127.12462 c 0,0 0,-25.85576 0,-25.85576 0,0 3.38338,0.86878 3.38338,0.86878 0,0 11.18059,22.34312 11.18059,22.34312 0,0 4.01455,8.64407 4.01455,8.64407 0,0 0.23714,0.13092 0.23714,0.13092 -0.11872,-1.7152 -0.25684,-3.48557 -0.41419,-5.30971 -0.11765,-1.83203 -0.17636,-3.5997 -0.17636,-5.30652 0,0 0,-16.69084 0,-16.69084 0,0 4.88318,1.2539 4.88318,1.2539 0,0 0,34.0247 0,34.0247 0,0 -5.29208,-3.22968 -5.29208,-3.22968 0,0 -12.01241,-24.90078 -12.01241,-24.90078 0,0 -2.99237,-6.68568 -2.99237,-6.68568 0,0 -0.16184,-0.051 -0.16184,-0.051 0.10782,1.39731 0.20241,2.82114 0.28368,4.27084 0.10863,1.43601 0.16307,2.86766 0.16307,4.29187 0,0 0,14.0914 0,14.0914 0,0 -3.09634,-1.88965 -3.09634,-1.88965"
       style="font-style:normal;font-variant:normal;font-weight:normal;font-stretch:normal;font-size:22.57777786px;line-height:1.25;font-family:'Source Sans Pro';-inkscape-font-specification:'Source Sans Pro, Normal';font-variant-ligatures:normal;font-variant-caps:normal;font-variant-numeric:normal;font-feature-settings:normal;text-align:start;letter-spacing:0px;word-spacing:0px;writing-mode:lr-tb;text-anchor:start;fill:#000000;fill-opacity:1;stroke:none;stroke-width:0.26458332"
       id="path5707"
       inkscape:connector-curvature="0"
       inkscape:export-filename="C:\projects\netbeans-9-splash\logo-rasters-2\netbeans-logo-05-256.png"
       inkscape:export-xdpi="112.19865"
       inkscape:export-ydpi="112.19865" />
    <path
       inkscape:connector-curvature="0"
       id="path8120"
       d="M 120.77341,123.4477 V 97.591926 l 23.10829,5.933734 v 34.02469 z"
       style="fill:none;stroke:#000000;stroke-width:0.26458335px;stroke-linecap:butt;stroke-linejoin:miter;stroke-opacity:1"
       inkscape:export-filename="C:\projects\netbeans-9-splash\logo-rasters-2\netbeans-logo-05-256.png"
       inkscape:export-xdpi="112.19865"
       inkscape:export-ydpi="112.19865" />
    <path
       inkscape:connector-curvature="0"
       id="path8122"
       d="m 143.8817,137.55035 v -34.02469 l 23.8125,-4.748314 v 26.782914 z"
       style="fill:none;stroke:#000000;stroke-width:0.26458335px;stroke-linecap:butt;stroke-linejoin:miter;stroke-opacity:1"
       inkscape:export-filename="C:\projects\netbeans-9-splash\logo-rasters-2\netbeans-logo-05-256.png"
       inkscape:export-xdpi="112.19865"
       inkscape:export-ydpi="112.19865" />
    <path
       d="m 149.27296,141.6489 c 0,0 0,-34.02469 0,-34.02469 0,0 11.55016,-2.16802 11.55016,-2.16802 1.73985,-0.32658 3.27149,-0.47909 4.61145,-0.46623 1.33482,0.006 2.43437,0.19601 3.31376,0.56365 0.89243,0.35454 1.56503,0.91468 2.02713,1.67965 0.48587,0.72267 0.72685,1.67681 0.72685,2.86823 0,1.35768 -0.35483,2.69385 -1.07298,4.02426 -0.70028,1.31425 -1.75617,2.41877 -3.19219,3.31877 0,0 0,0.17414 0,0.17414 1.82552,-0.2894 3.25007,-0.0639 4.30754,0.65549 1.0331,0.70273 1.54077,1.97348 1.54077,3.82433 0,1.30648 -0.24624,2.5557 -0.74288,3.75769 -0.50227,1.21559 -1.22361,2.37706 -2.17459,3.49145 -0.97127,1.13817 -2.16149,2.22407 -3.58699,3.26268 -1.46981,1.0709 -3.13692,2.06892 -5.0197,2.99491 0,0 -12.28833,6.04369 -12.28833,6.04369 m 5.2261,-21.21074 c 0,0 5.52093,-1.7504 5.52093,-1.7504 2.93465,-0.93042 4.94495,-1.99884 6.13433,-3.22206 1.16033,-1.19333 1.72993,-2.49978 1.72993,-3.94108 0,-1.64307 -0.60059,-2.66827 -1.82528,-3.08357 -1.2244,-0.43354 -3.13826,-0.37296 -5.82355,0.21324 0,0 -5.73636,1.25226 -5.73636,1.25226 0,0 0,10.53161 0,10.53161 m 0,15.37712 c 0,0 6.43019,-2.96575 6.43019,-2.96575 2.91618,-1.34502 5.06606,-2.79245 6.54003,-4.3628 1.42899,-1.55095 2.12726,-3.2426 2.12726,-5.11018 0,-1.7261 -0.6833,-2.7333 -2.08096,-3.02814 -1.44069,-0.33328 -3.60357,-0.009 -6.58633,1.02472 0,0 -6.43019,2.22946 -6.43019,2.22946 0,0 0,12.21269 0,12.21269"
       style="font-style:normal;font-variant:normal;font-weight:normal;font-stretch:normal;font-size:22.57777977px;line-height:1.25;font-family:'Source Sans Pro';-inkscape-font-specification:'Source Sans Pro, Normal';font-variant-ligatures:normal;font-variant-caps:normal;font-variant-numeric:normal;font-feature-settings:normal;text-align:start;letter-spacing:0px;word-spacing:0px;writing-mode:lr-tb;text-anchor:start;fill:#000000;fill-opacity:1;stroke:none;stroke-width:0.26458332"
       id="path8430"
       inkscape:connector-curvature="0"
       inkscape:export-filename="C:\projects\netbeans-9-splash\logo-rasters-2\netbeans-logo-05-256.png"
       inkscape:export-xdpi="112.19865"
       inkscape:export-ydpi="112.19865" />
    <path
       style="fill:none;stroke:#000000;stroke-width:0.26458335px;stroke-linecap:butt;stroke-linejoin:miter;stroke-opacity:1"
       d="m 121.40818,95.019457 22.97465,5.733273 23.31137,-1.975376 -23.91213,-3.976624 z"
       id="path8562"
       inkscape:connector-curvature="0"
       sodipodi:nodetypes="ccccc"
       inkscape:export-filename="C:\projects\netbeans-9-splash\logo-rasters-2\netbeans-logo-05-256.png"
       inkscape:export-xdpi="112.19865"
       inkscape:export-ydpi="112.19865" />
    <path
       style="fill:none;stroke:#000000;stroke-width:0.26458335px;stroke-linecap:butt;stroke-linejoin:miter;stroke-opacity:1"
       d="m 120.77341,97.591928 7.36365,-0.893292"
       id="path8596"
       inkscape:connector-curvature="0"
       inkscape:export-filename="C:\projects\netbeans-9-splash\logo-rasters-2\netbeans-logo-05-256.png"
       inkscape:export-xdpi="112.19865"
       inkscape:export-ydpi="112.19865" />
    <path
       d="m 122.75069,122.44203 c 0,0 0,-21.43103 0,-21.43103 0,0 2.80437,0.72011 2.80437,0.72011 0,0 9.26725,18.51951 9.26725,18.51951 0,0 3.32753,7.16479 3.32753,7.16479 0,0 0.19656,0.10852 0.19656,0.10852 -0.0984,-1.42167 -0.21289,-2.88908 -0.34332,-4.40106 -0.0975,-1.5185 -0.14617,-2.98367 -0.14617,-4.3984 0,0 0,-13.83451 0,-13.83451 0,0 4.04751,1.03931 4.04751,1.03931 0,0 0,28.20201 0,28.20201 0,0 -4.38644,-2.67698 -4.38644,-2.67698 0,0 -9.95671,-20.63948 -9.95671,-20.63948 0,0 -2.48028,-5.54154 -2.48028,-5.54154 0,0 -0.13415,-0.0423 -0.13415,-0.0423 0.0894,1.15819 0.16778,2.33835 0.23514,3.53997 0.0901,1.19026 0.13516,2.37691 0.13516,3.5574 0,0 0,11.67991 0,11.67991 0,0 -2.56645,-1.56627 -2.56645,-1.56627"
       style="font-style:normal;font-variant:normal;font-weight:normal;font-stretch:normal;font-size:22.57777786px;line-height:1.25;font-family:'Source Sans Pro';-inkscape-font-specification:'Source Sans Pro, Normal';font-variant-ligatures:normal;font-variant-caps:normal;font-variant-numeric:normal;font-feature-settings:normal;text-align:start;letter-spacing:0px;word-spacing:0px;writing-mode:lr-tb;text-anchor:start;fill:#000000;fill-opacity:0.10179641;stroke:none;stroke-width:0.2193048"
       id="path5707-7"
       inkscape:connector-curvature="0"
       inkscape:export-filename="C:\projects\netbeans-9-splash\logo-rasters-2\netbeans-logo-05-256.png"
       inkscape:export-xdpi="112.19865"
       inkscape:export-ydpi="112.19865" />
    <path
       d="m 145.66352,134.80719 c 0,0 0,-28.93274 0,-28.93274 0,0 9.82163,-1.84356 9.82163,-1.84356 1.47946,-0.27771 2.78188,-0.40739 3.92134,-0.39645 1.13504,0.005 2.07005,0.16667 2.81783,0.4793 0.75888,0.30147 1.33081,0.77777 1.72375,1.42828 0.41316,0.6145 0.61809,1.42586 0.61809,2.43898 0,1.1545 -0.30172,2.29069 -0.9124,3.42201 -0.59549,1.11757 -1.49336,2.05679 -2.71448,2.8221 0,0 0,0.14808 0,0.14808 1.55232,-0.24608 2.76369,-0.0543 3.6629,0.55739 0.87849,0.59757 1.31019,1.67815 1.31019,3.252 0,1.11096 -0.20939,2.17323 -0.6317,3.19534 -0.42711,1.03367 -1.0405,2.02133 -1.84916,2.96894 -0.82591,0.96784 -1.83802,1.89123 -3.05018,2.77441 -1.24984,0.91063 -2.66746,1.7593 -4.26849,2.54669 0,0 -10.44932,5.13923 -10.44932,5.13923 m 4.44399,-18.03645 c 0,0 4.69469,-1.48845 4.69469,-1.48845 2.49548,-0.79118 4.20492,-1.6997 5.21631,-2.73986 0.98668,-1.01474 1.47104,-2.12568 1.47104,-3.35128 0,-1.39717 -0.5107,-2.26895 -1.55212,-2.6221 -1.04116,-0.36866 -2.6686,-0.31715 -4.95203,0.18133 0,0 -4.87789,1.06484 -4.87789,1.06484 0,0 0,8.95552 0,8.95552 m 0,13.07586 c 0,0 5.46789,-2.52191 5.46789,-2.52191 2.47976,-1.14373 4.3079,-2.37454 5.56129,-3.70988 1.21512,-1.31885 1.8089,-2.75734 1.8089,-4.34542 0,-1.46778 -0.58104,-2.32425 -1.76954,-2.57497 -1.22508,-0.2834 -3.06428,-0.008 -5.60065,0.87137 0,0 -5.46789,1.89581 -5.46789,1.89581 0,0 0,10.385 0,10.385"
       style="font-style:normal;font-variant:normal;font-weight:normal;font-stretch:normal;font-size:22.57777977px;line-height:1.25;font-family:'Source Sans Pro';-inkscape-font-specification:'Source Sans Pro, Normal';font-variant-ligatures:normal;font-variant-caps:normal;font-variant-numeric:normal;font-feature-settings:normal;text-align:start;letter-spacing:0px;word-spacing:0px;writing-mode:lr-tb;text-anchor:start;fill:#000000;fill-opacity:0.08383233;stroke:none;stroke-width:0.22498727"
       id="path8430-3"
       inkscape:connector-curvature="0"
       inkscape:export-filename="C:\projects\netbeans-9-splash\logo-rasters-2\netbeans-logo-05-256.png"
       inkscape:export-xdpi="112.19865"
       inkscape:export-ydpi="112.19865" />
  </g>
</svg>
