<?xml version="1.0" encoding="UTF-8" standalone="no"?>
<!-- Created with Inkscape (http://www.inkscape.org/) -->

<svg
   xmlns:dc="http://purl.org/dc/elements/1.1/"
   xmlns:cc="http://creativecommons.org/ns#"
   xmlns:rdf="http://www.w3.org/1999/02/22-rdf-syntax-ns#"
   xmlns:svg="http://www.w3.org/2000/svg"
   xmlns="http://www.w3.org/2000/svg"
   xmlns:sodipodi="http://sodipodi.sourceforge.net/DTD/sodipodi-0.dtd"
   xmlns:inkscape="http://www.inkscape.org/namespaces/inkscape"
   id="svg8"
   version="1.1"
   viewBox="0 0 210 297"
   height="297mm"
   width="210mm"
   sodipodi:docname="Apache-Netbeans-Logo_dmtavt.svg"
   inkscape:version="0.92.2 (5c3e80d, 2017-08-06)">
  <sodipodi:namedview
     inkscape:window-maximized="1"
     inkscape:window-y="-8"
     inkscape:window-x="-8"
     inkscape:window-height="1177"
     inkscape:window-width="1858"
     showgrid="false"
     inkscape:current-layer="layer1"
     inkscape:document-units="mm"
     inkscape:cy="666.17349"
     inkscape:cx="155.55846"
     inkscape:zoom="0.98994949"
     inkscape:pageshadow="2"
     inkscape:pageopacity="0.0"
     borderopacity="1.0"
     bordercolor="#666666"
     pagecolor="#ffffff"
     id="base" />
  <defs
     id="defs2">
    <inkscape:perspective
       sodipodi:type="inkscape:persp3d"
       inkscape:vp_x="31.643901 : 193.19291 : 1"
       inkscape:vp_y="0 : 1000 : 0"
       inkscape:vp_z="141.63272 : 194.313 : 1"
       inkscape:persp3d-origin="105 : 99 : 1"
       id="perspective10" />
  </defs>
  <metadata
     id="metadata5">
    <rdf:RDF>
      <cc:Work
         rdf:about="">
        <dc:format>image/svg+xml</dc:format>
        <dc:type
           rdf:resource="http://purl.org/dc/dcmitype/StillImage" />
      </cc:Work>
    </rdf:RDF>
  </metadata>
  <g
     inkscape:label="Layer 1"
     inkscape:groupmode="layer"
     id="layer1">
    <g
       sodipodi:type="inkscape:box3d"
       id="g12"
       inkscape:perspectiveID="#perspective10"
       inkscape:corner0="2.2276563 : 0.084058829 : 0 : 1"
       inkscape:corner7="0.3595969 : 0.010544217 : 1.7614008 : 1"
       style="opacity:1;vector-effect:none;fill:#b3b3b3;fill-opacity:1;stroke:none;stroke-width:3.77952766;stroke-linecap:butt;stroke-linejoin:miter;stroke-miterlimit:4;stroke-dasharray:none;stroke-dashoffset:0;stroke-opacity:1">
      <path
         sodipodi:type="inkscape:box3dside"
         id="path14"
         inkscape:box3dsidetype="6"
         d="m 54.37126,106.94685 v 22.77647 l 30.807908,-9.54525 V 105.4429 Z"
         points="54.37126,129.72332 85.179168,120.17807 85.179168,105.4429 54.37126,106.94685 "
         style="fill:#353564;fill-rule:evenodd;stroke:none;stroke-linejoin:round" />
      <path
         sodipodi:type="inkscape:box3dside"
         id="path22"
         inkscape:box3dsidetype="13"
         d="m 54.37126,129.72332 31.226943,35.60839 31.624257,-35.35486 -32.043292,-9.79878 z"
         points="85.598203,165.33171 117.22246,129.97685 85.179168,120.17807 54.37126,129.72332 "
         style="fill:#afafde;fill-rule:evenodd;stroke:none;stroke-linejoin:round" />
      <path
         sodipodi:type="inkscape:box3dside"
         id="path24"
         inkscape:box3dsidetype="11"
         d="m 85.179168,105.4429 32.043292,0.97911 v 23.55484 l -32.043292,-9.79878 z"
         points="117.22246,106.42201 117.22246,129.97685 85.179168,120.17807 85.179168,105.4429 "
         style="fill:#e9e9ff;fill-rule:evenodd;stroke:none;stroke-linejoin:round" />
      <path
         sodipodi:type="inkscape:box3dside"
         id="path16"
         inkscape:box3dsidetype="5"
         d="m 54.37126,106.94685 31.226943,4.31398 31.624257,-4.83882 -32.043292,-0.97911 z"
         points="85.598203,111.26083 117.22246,106.42201 85.179168,105.4429 54.37126,106.94685 "
         style="fill:#4d4d9f;fill-rule:evenodd;stroke:none;stroke-linejoin:round" />
      <path
         sodipodi:type="inkscape:box3dside"
         id="path20"
         inkscape:box3dsidetype="14"
         d="m 85.598203,111.26083 v 54.07088 l 31.624257,-35.35486 v -23.55484 z"
         points="85.598203,165.33171 117.22246,129.97685 117.22246,106.42201 85.598203,111.26083 "
         style="fill:#d7d7ff;fill-rule:evenodd;stroke:none;stroke-linejoin:round" />
      <path
         sodipodi:type="inkscape:box3dside"
         id="path18"
         inkscape:box3dsidetype="3"
         d="m 54.37126,106.94685 31.226943,4.31398 v 54.07088 L 54.37126,129.72332 Z"
         points="85.598203,111.26083 85.598203,165.33171 54.37126,129.72332 54.37126,106.94685 "
         style="fill:#8686bf;fill-rule:evenodd;stroke:none;stroke-linejoin:round" />
    </g>
    <text
       xml:space="preserve"
       style="font-style:normal;font-variant:normal;font-weight:normal;font-stretch:normal;font-size:4.93888855px;line-height:1.25;font-family:'Cambria Math';-inkscape-font-specification:'Cambria Math';letter-spacing:0px;word-spacing:0px;fill:#000000;fill-opacity:1;stroke:none;stroke-width:0.26458332"
       x="54.815765"
       y="176.27492"
       id="text42"><tspan
         sodipodi:role="line"
         id="tspan40"
         x="54.815765"
         y="176.27492"
         style="font-style:normal;font-variant:normal;font-weight:600;font-stretch:normal;font-size:22.57777786px;font-family:Raleway;-inkscape-font-specification:'Raleway, Semi-Bold';font-variant-ligatures:normal;font-variant-caps:normal;font-variant-numeric:normal;font-feature-settings:normal;text-align:start;writing-mode:lr-tb;text-anchor:start;stroke-width:0.26458332">N</tspan></text>
    <text
       xml:space="preserve"
       style="font-style:normal;font-variant:normal;font-weight:normal;font-stretch:normal;font-size:4.93888855px;line-height:1.25;font-family:'Cambria Math';-inkscape-font-specification:'Cambria Math';letter-spacing:0px;word-spacing:0px;fill:#000000;fill-opacity:1;stroke:none;stroke-width:0.26458332"
       x="118.01647"
       y="178.84343"
       id="text46"><tspan
         sodipodi:role="line"
         id="tspan44"
         x="118.01647"
         y="178.84343"
         style="font-style:normal;font-variant:normal;font-weight:600;font-stretch:normal;font-size:22.57777786px;font-family:Raleway;-inkscape-font-specification:'Raleway, Semi-Bold';font-variant-ligatures:normal;font-variant-caps:normal;font-variant-numeric:normal;font-feature-settings:normal;text-align:start;writing-mode:lr-tb;text-anchor:start;stroke-width:0.26458332">B</tspan></text>
    <path
       style="display:inline;opacity:1;vector-effect:none;fill:#8686bf;fill-opacity:1;fill-rule:evenodd;stroke:none;stroke-width:3.77952766;stroke-linecap:butt;stroke-linejoin:round;stroke-miterlimit:4;stroke-dasharray:none;stroke-dashoffset:0;stroke-opacity:1"
       d="m 14.246647,63.798325 v -22.77647 l 31.226943,4.31397 v 54.07089 z"
       id="path18-8"
       inkscape:connector-curvature="0" />
    <path
       inkscape:connector-curvature="0"
       id="path82"
       style="font-style:normal;font-variant:normal;font-weight:600;font-stretch:normal;font-size:22.57777786px;line-height:1.25;font-family:Raleway;-inkscape-font-specification:'Raleway, Semi-Bold';font-variant-ligatures:normal;font-variant-caps:normal;font-variant-numeric:normal;font-feature-settings:normal;text-align:start;letter-spacing:0px;word-spacing:0px;writing-mode:lr-tb;text-anchor:start;display:inline;fill:#000000;fill-opacity:1;stroke:none;stroke-width:0.26458332"
       d="m 53.289984,116.89992 c 0,0 0,17.95746 0,17.95746 0,0 -2.717242,-3.0985 -2.717242,-3.0985 0,0 0,-22.77647 0,-22.77647 0,0 2.081645,0.28758 2.081645,0.28758 0,0 18.155694,33.55813 18.155694,33.55813 0,0 0,-30.98929 0,-30.98929 0,0 10.989604,1.53372 10.989604,1.53372 0,0 0,53.99472 0,53.99472 0,0 -9.382791,-10.69929 -9.382791,-10.69929 0,0 -19.12691,-39.76806 -19.12691,-39.76806" />
    <path
       inkscape:connector-curvature="0"
       id="path20-7"
       d="m 45.47359,45.335825 v 54.07088 l 31.62425,-35.35486 v -23.55484 z"
       style="display:inline;opacity:1;vector-effect:none;fill:#d7d7ff;fill-opacity:1;fill-rule:evenodd;stroke:none;stroke-width:3.77952766;stroke-linecap:butt;stroke-linejoin:round;stroke-miterlimit:4;stroke-dasharray:none;stroke-dashoffset:0;stroke-opacity:1" />
    <path
       d="m 120.25179,114.74971 c 0,-0.95105 -0.14904,-1.75369 -0.45264,-2.42007 -0.29372,-0.68773 -0.71135,-1.24851 -1.26507,-1.68378 -0.55855,-0.43423 -1.25495,-0.74335 -2.10929,-0.92123 -0.90937,-0.16294 -1.94202,-0.16339 -3.11827,0.0166 0,0 -24.678969,3.77613 -24.678969,3.77613 0,0 0,54.07087 0,54.07087 0,0 25.741589,-28.77824 25.741589,-28.77824 0.90972,-1.01704 1.6875,-2.09393 2.34988,-3.23474 0.63241,-1.08918 1.14787,-2.1566 1.55798,-3.21399 0.39774,-1.00197 0.69283,-1.97701 0.89185,-2.93633 0.21362,-0.93809 0.31909,-1.77761 0.31909,-2.53032 0,-1.18609 -0.23857,-2.11756 -0.72952,-2.81401 -0.49104,-0.71342 -1.23298,-1.01922 -2.26771,-0.88993 1.27665,-1.26554 2.20268,-2.62671 2.83869,-4.11103 0.62248,-1.39963 0.92239,-2.82595 0.92239,-4.32992 0,0 0,0 0,0 m -3.21294,2.0791 c 0,0.55063 -0.0846,1.1159 -0.25527,1.7012 -0.15109,0.58155 -0.3698,1.14001 -0.65929,1.67879 -0.27253,0.53734 -0.6206,1.04529 -1.04955,1.52651 -0.44176,0.49559 -0.93546,0.90426 -1.48563,1.22322 0,0 -13.39767,7.76751 -13.39767,7.76751 0,0 0,-13.11542 0,-13.11542 0,0 13.11508,-3.73573 13.11508,-3.73573 0.5863,-0.167 1.11323,-0.20749 1.58574,-0.12801 0.45797,0.1036 0.84441,0.28757 1.16439,0.54986 0.31298,0.28219 0.55412,0.63213 0.72693,1.05054 0.1707,0.43841 0.25527,0.93091 0.25527,1.48153 0,0 0,0 0,0 m -16.84741,31.96868 c 0,0 0,-12.63188 0,-12.63188 0,0 12.23562,-8.59043 12.23562,-8.59043 0.59169,-0.41541 1.10862,-0.66553 1.55703,-0.75961 0.46091,-0.10959 0.84685,-0.10374 1.16302,0.0132 0.33308,0.12319 0.578,0.37108 0.739,0.74264 0.18183,0.34927 0.27188,0.81926 0.27188,1.41327 0,1.18801 -0.29477,2.42742 -0.903,3.75914 -0.63447,1.41638 -1.4803,2.65877 -2.57166,3.735 0,0 -12.49189,12.31868 -12.49189,12.31868"
       style="font-style:normal;font-variant:normal;font-weight:600;font-stretch:normal;font-size:22.57777786px;line-height:1.25;font-family:Raleway;-inkscape-font-specification:'Raleway, Semi-Bold';font-variant-ligatures:normal;font-variant-caps:normal;font-variant-numeric:normal;font-feature-settings:normal;text-align:start;letter-spacing:0px;word-spacing:0px;writing-mode:lr-tb;text-anchor:start;display:inline;fill:#000000;fill-opacity:1;stroke:none;stroke-width:0.26458332"
       id="path242"
       inkscape:connector-curvature="0" />
    <path
       transform="translate(-40.124613,-65.925005)"
       sodipodi:type="inkscape:box3dside"
       id="path16-2"
       inkscape:box3dsidetype="5"
       d="m 117.22246,106.42201 -32.043292,-0.97911 -30.807908,1.50395 31.226943,4.31398 z"
       points="85.179168,105.4429 54.37126,106.94685 85.598203,111.26083 117.22246,106.42201 "
       style="opacity:1;vector-effect:none;fill:#4d4d9f;fill-opacity:1;fill-rule:evenodd;stroke:none;stroke-width:3.77952766;stroke-linecap:butt;stroke-linejoin:round;stroke-miterlimit:4;stroke-dasharray:none;stroke-dashoffset:0;stroke-opacity:1" />
  </g>
</svg>
